<svg xmlns="http://www.w3.org/2000/svg" viewBox="0 0 222.711 300">
<path opacity="0.02" fill="#2C3E50" d="M170.748,162.865l-7.459-4.307l59.418-34.304v8.613L170.748,162.865z M185.604,111.396v8.611
	l37.104-21.419l-0.004-8.611L185.604,111.396z M74.212,218.602l59.409-34.299l-7.455-4.31l-51.954,29.994V218.602z M222.707,107.115
	l-37.104,21.421v0.049l-0.039-0.025l-37.117,21.428l0.037,0.021l0,0l7.422,4.287l66.801-38.566V107.115z M185.604,85.72v0.008
	l37.1-21.418v-0.026l-7.436-4.294l-37.115,21.43L185.604,85.72z M170.77,77.155l37.115-21.43l-7.461-4.303l-37.115,21.429
	L170.77,77.155z M222.703,72.837l-37.1,21.419v8.61l37.1-21.417V72.837z M155.926,68.585l37.111-21.429l-7.457-4.307l-37.113,21.429
	L155.926,68.585z M74.212,201.461l44.571-25.734l-7.422-4.292l0,0l-0.03-0.019l-37.12,21.432V201.461z M222.707,158.533
	l-37.148,21.446v8.614l37.148-21.447V158.533z M185.559,205.731l37.148-21.448v-8.61l-37.148,21.447V205.731z M222.707,141.394
	l-44.576,25.736l7.428,4.289v0.032l37.148-21.446V141.394z M74.212,98.624l37.122-21.434v-8.611L74.212,90.01V98.624z
	 M74.212,184.322l103.966-60.025l-7.459-4.306l-96.507,55.717V184.322z M141.08,60.015l37.115-21.429l-7.457-4.305l-37.117,21.43
	L141.08,60.015z M74.212,150.042l74.28-42.885l-7.457-4.306l-66.823,38.578V150.042z M74.212,167.183l89.122-51.457l-7.459-4.305
	l-81.663,47.147V167.183z M74.212,132.903l59.433-34.317l-7.457-4.305L74.212,124.29V132.903z M111.334,51.438L74.212,72.871v8.613
	l37.122-21.434V51.438z M74.212,115.763l44.591-25.746l-7.459-4.306l-37.132,21.438V115.763z M51.942,222.846l-37.115,21.429
	l7.458,4.307l37.116-21.429L51.942,222.846z M111.334,214.3l37.107-21.429l-7.443-4.302l-66.786,38.559v8.573l-7.426-4.287
	l-37.117,21.429l7.459,4.309l74.206-42.842V214.3z M126.238,51.446l37.117-21.428l-7.459-4.307l-37.119,21.428L126.238,51.446z
	 M111.339,222.833l-66.826,38.581l7.458,4.307l59.375-34.279L111.339,222.833z M37.1,197.135l-37.117,21.43l-0.002,8.616
	l37.12-21.432V197.135z M111.342,300l111.369-64.297v-8.611l-118.828,68.604L111.342,300z M89.042,287.125l7.459,4.308
	l126.209-72.868v-8.615L89.042,287.125z M222.707,192.812l-37.148,21.447v0.046l-74.195,42.839v-0.047l-37.165,21.456l7.459,4.308
	l141.048-81.438V192.812z M111.352,239.966l-51.997,30.02l7.458,4.304l44.546-25.716L111.352,239.966z M37.1,214.279v-0.004
	l-37.117,21.431l7.459,4.305l37.114-21.428L37.1,214.279z M126.207,8.571L0.016,81.429l-0.002,8.614l133.652-77.165L126.207,8.571z
	 M37.1,179.994l-37.114,21.427v8.617L37.1,188.609V179.994z M111.366,0L33.454,44.982L0.02,64.292l-0.002,8.609L118.824,4.306
	L111.366,0z M37.1,94.297L0.008,115.711l-0.002,8.616L37.1,102.911V94.297z M37.1,85.72l37.112-21.428v0.052l37.122-21.433v-0.068
	l0.058,0.035l37.12-21.432l-7.459-4.304L0.014,98.57l-0.003,8.615L37.1,85.77V85.72z M37.1,145.716l-37.104,21.422l-0.002,8.616
	L37.1,154.33V145.716z M37.1,162.855L-0.01,184.28l-0.002,8.615L37.1,171.469V162.855z M37.1,111.438L0.002,132.853L0,141.469
	l37.1-21.419V111.438z M37.1,128.577L0,149.996l-0.002,8.617L37.1,137.189V128.577z"/>
</svg>
